<?xml version="1.0" encoding="UTF-8" standalone="no"?><!DOCTYPE svg PUBLIC "-//W3C//DTD SVG 1.1//EN" "http://www.w3.org/Graphics/SVG/1.1/DTD/svg11.dtd"><svg width="100%" height="100%" viewBox="0 0 2481 3508" version="1.1" xmlns="http://www.w3.org/2000/svg" xmlns:xlink="http://www.w3.org/1999/xlink" xml:space="preserve" xmlns:serif="http://www.serif.com/" style="fill-rule:evenodd;clip-rule:evenodd;stroke-linejoin:round;stroke-miterlimit:2;"><g><path d="M650.382,1049.78c98.896,203.525 198.867,401.316 299.913,593.375c101.046,192.059 206.75,389.134 317.112,591.225c14.332,-27.232 35.115,-66.289 62.347,-117.17c27.232,-50.881 58.764,-109.287 94.596,-175.218c35.832,-65.93 74.172,-137.235 115.02,-213.916c40.848,-76.68 82.413,-154.435 124.695,-233.265c42.282,-78.83 84.205,-156.227 125.77,-232.19c41.565,-75.964 80.263,-146.911 116.095,-212.841l27.949,0c15.766,137.594 30.457,270.53 44.073,398.808c13.616,128.278 27.59,254.406 41.923,378.384c14.333,123.978 28.666,246.523 42.998,367.635c14.333,121.111 30.099,241.148 47.298,360.11c-17.199,-2.867 -34.04,-4.3 -50.523,-4.3l-101.045,0c-16.483,0 -33.324,1.433 -50.523,4.3c-15.766,-190.626 -31.532,-375.518 -47.298,-554.677c-15.766,-179.159 -35.115,-361.901 -58.048,-548.227l-4.3,0c-98.896,180.592 -196,360.11 -291.312,538.552c-95.313,178.443 -185.968,365.127 -271.964,560.052l-19.349,0c-85.997,-180.592 -175.935,-361.543 -269.814,-542.852c-93.879,-181.309 -188.117,-366.56 -282.713,-555.752l-4.3,0c-10.033,88.863 -21.141,185.251 -33.324,289.163c-12.182,103.912 -23.29,206.391 -33.323,307.437c-10.033,101.046 -18.633,196.358 -25.799,285.938c-7.166,89.58 -10.75,163.035 -10.75,220.366c-22.932,-2.867 -48.014,-4.3 -75.246,-4.3c-27.233,0 -52.315,1.433 -75.247,4.3c18.632,-116.095 37.981,-238.64 58.047,-367.635c20.066,-128.994 39.415,-258.706 58.048,-389.133c18.632,-130.428 35.832,-259.065 51.598,-385.909c15.766,-126.845 29.382,-247.598 40.848,-362.26l36.548,0Z" style="fill:#ac99b7;fill-rule:nonzero;"/><rect x="302.097" y="2765.4" width="1911.27" height="107.496" style="fill:#ac99b7;"/></g><g><path d="M634.382,1022.77c98.896,203.525 198.867,401.316 299.913,593.375c101.046,192.059 206.75,389.134 317.112,591.225c14.332,-27.232 35.115,-66.289 62.347,-117.17c27.232,-50.881 58.764,-109.287 94.596,-175.218c35.832,-65.93 74.172,-137.235 115.02,-213.916c40.848,-76.68 82.413,-154.435 124.695,-233.265c42.282,-78.83 84.205,-156.227 125.77,-232.19c41.565,-75.964 80.263,-146.911 116.095,-212.841l27.949,0c15.766,137.594 30.457,270.53 44.073,398.808c13.616,128.278 27.59,254.406 41.923,378.384c14.333,123.978 28.666,246.523 42.998,367.635c14.333,121.111 30.099,241.148 47.298,360.11c-17.199,-2.867 -34.04,-4.3 -50.523,-4.3l-101.045,0c-16.483,0 -33.324,1.433 -50.523,4.3c-15.766,-190.626 -31.532,-375.518 -47.298,-554.677c-15.766,-179.159 -35.115,-361.901 -58.048,-548.227l-4.3,0c-98.896,180.592 -196,360.11 -291.312,538.552c-95.313,178.443 -185.968,365.127 -271.964,560.052l-19.349,0c-85.997,-180.592 -175.935,-361.543 -269.814,-542.852c-93.879,-181.309 -188.117,-366.56 -282.713,-555.752l-4.3,0c-10.033,88.863 -21.141,185.251 -33.324,289.163c-12.182,103.912 -23.29,206.391 -33.323,307.437c-10.033,101.046 -18.633,196.358 -25.799,285.938c-7.166,89.58 -10.75,163.035 -10.75,220.366c-22.932,-2.867 -48.014,-4.3 -75.246,-4.3c-27.233,0 -52.315,1.433 -75.247,4.3c18.632,-116.095 37.981,-238.64 58.047,-367.635c20.066,-128.994 39.415,-258.706 58.048,-389.134c18.632,-130.427 35.832,-259.064 51.598,-385.908c15.766,-126.845 29.382,-247.598 40.848,-362.26l36.548,0Z" style="fill:#c3abd0;fill-rule:nonzero;"/><rect x="286.097" y="2738.4" width="1911.27" height="107.496" style="fill:#c3abd0;"/></g></svg>